# Blender v3.2.2 OBJ File: ''
# www.blender.org
mtllib target.mtl
o target
v 29.999996 -0.000011 -1.950001
v 27.716385 11.480492 -1.949999
v 27.716385 11.480492 1.950000
v 29.999996 -0.000012 1.949998
v 21.213203 21.213196 -1.949997
v 21.213203 21.213196 1.950002
v 11.480505 27.716370 -1.949995
v 11.480505 27.716377 1.950005
v 0.000002 29.999985 -1.949993
v 0.000002 29.999985 1.950007
v -11.480502 27.716377 -1.949993
v -11.480502 27.716377 1.950006
v -21.213200 21.213196 -1.949994
v -21.213200 21.213196 1.950006
v -27.716381 11.480499 -1.949994
v -27.716381 11.480499 1.950005
v -29.999996 0.000000 -1.949996
v -29.999996 -0.000000 1.950004
v -27.716387 -11.480499 -1.949998
v -27.716387 -11.480507 1.950002
v -21.213211 -21.213205 -1.950001
v -21.213211 -21.213205 1.949999
v -11.480509 -27.716391 -1.950003
v -11.480509 -27.716391 1.949997
v -0.000002 -30.000004 -1.950004
v -0.000002 -30.000004 1.949995
v 11.480505 -27.716391 -1.950005
v 11.480505 -27.716391 1.949996
v 21.213207 -21.213203 -1.950005
v 21.213207 -21.213203 1.949995
v 27.716391 -11.480499 -1.950003
v 27.716391 -11.480499 1.949997
v 0.000000 12.790512 -2.249997
v 12.047469 12.047462 -2.249998
v 12.790521 -0.000007 -2.250000
v 0.000000 -0.000007 -2.249999
v 0.000001 -0.000004 2.250001
v 0.000000 -12.790527 2.249999
v 12.047471 -12.047470 2.249998
v 12.790521 -0.000008 2.250000
v 27.439220 11.365692 -2.249999
v 29.699999 -0.000011 -2.250001
v 27.124588 -0.000011 -2.250001
v 25.059849 10.380119 -2.250000
v 27.439226 -11.365696 -2.250003
v 25.059856 -10.380127 -2.250003
v 21.001076 -21.001070 -2.250005
v 19.179983 -19.179985 -2.250004
v 11.365700 -27.439226 -2.250005
v 10.380134 -25.059856 -2.250004
v -0.000002 -29.700006 -2.250004
v -0.000002 -27.124596 -2.250004
v -11.365705 -27.439226 -2.250003
v -10.380136 -25.059856 -2.250002
v -21.001080 -21.001074 -2.250000
v -19.179987 -19.179977 -2.250000
v -27.439222 -11.365696 -2.249998
v -25.059855 -10.380135 -2.249999
v -29.699999 0.000000 -2.249996
v -27.124588 0.000000 -2.249996
v -27.439217 11.365692 -2.249994
v -25.059849 10.380127 -2.249995
v -21.001068 21.001068 -2.249994
v -19.179979 19.179977 -2.249994
v -11.365698 27.439209 -2.249993
v -10.380131 25.059845 -2.249993
v 0.000002 29.699989 -2.249993
v 0.000001 27.124580 -2.249994
v 11.365700 27.439209 -2.249995
v 10.380132 25.059845 -2.249995
v 21.001072 21.001060 -2.249997
v 19.179983 19.179970 -2.249997
v 29.699999 -0.000012 2.249998
v 27.439220 11.365688 2.250000
v 25.059849 10.380119 2.250000
v 27.124588 -0.000012 2.249998
v 21.001072 21.001060 2.250002
v 19.179983 19.179970 2.250002
v 11.365700 27.439209 2.250004
v 10.380132 25.059845 2.250004
v 0.000002 29.699989 2.250006
v 0.000002 27.124580 2.250005
v -11.365698 27.439209 2.250006
v -10.380131 25.059845 2.250006
v -21.001068 21.001060 2.250006
v -19.179979 19.179977 2.250006
v -27.439217 11.365692 2.250005
v -25.059849 10.380127 2.250006
v -29.699999 -0.000000 2.250003
v -27.124588 -0.000000 2.250003
v -27.439222 -11.365696 2.250002
v -25.059855 -10.380135 2.250001
v -21.001080 -21.001076 2.249999
v -19.179987 -19.179985 2.249999
v -11.365705 -27.439226 2.249997
v -10.380136 -25.059856 2.249998
v -0.000002 -29.700006 2.249995
v -0.000001 -27.124596 2.249996
v 11.365700 -27.439226 2.249995
v 10.380134 -25.059856 2.249996
v 21.001076 -21.001072 2.249995
v 19.179983 -19.179985 2.249995
v 27.439226 -11.365692 2.249997
v 25.059856 -10.380127 2.249996
v 0.000001 12.790512 2.250003
v 12.047469 12.047462 2.250002
v -12.047467 12.047462 2.250004
v -12.790518 -0.000004 2.250002
v -12.047471 -12.047470 2.250000
v 0.000000 -12.790524 -2.250001
v 12.047471 -12.047470 -2.250002
v -12.047471 -12.047470 -2.250000
v -12.790518 -0.000003 -2.249998
v -12.047467 12.047462 -2.249995
vt 0.943240 0.499985
vt 0.908529 0.331271
vt 0.956327 0.311162
vt 0.994910 0.499986
vt 0.810884 0.189107
vt 0.847970 0.152021
vt 0.668715 0.091469
vt 0.688822 0.043672
vt 0.499998 0.056759
vt 0.499998 0.005090
vt 0.331281 0.091462
vt 0.311174 0.043665
vt 0.189114 0.189101
vt 0.152028 0.152014
vt 0.091471 0.331264
vt 0.043674 0.311156
vt 0.056759 0.499978
vt 0.005090 0.499978
vt 0.091465 0.668691
vt 0.043668 0.688800
vt 0.189109 0.810852
vt 0.152023 0.847939
vt 0.331275 0.908491
vt 0.311168 0.956287
vt 0.499992 0.943195
vt 0.499991 0.994864
vt 0.668709 0.908491
vt 0.688815 0.956288
vt 0.810881 0.810857
vt 0.847965 0.847945
vt 0.908530 0.668699
vt 0.956327 0.688808
vt 0.499997 0.308043
vt 0.680475 0.319510
vt 0.691940 0.499983
vt 0.499996 0.499981
vt 0.500006 0.500000
vt 0.500008 0.306349
vt 0.682409 0.317602
vt 0.693656 0.500002
vt 0.908214 0.331339
vt 0.943056 0.499985
vt 0.907793 0.499985
vt 0.875967 0.345531
vt 0.908213 0.668630
vt 0.875966 0.654437
vt 0.810317 0.810295
vt 0.785224 0.785203
vt 0.668640 0.908179
vt 0.654450 0.875938
vt 0.499992 0.943016
vt 0.499992 0.907761
vt 0.331344 0.908179
vt 0.345536 0.875936
vt 0.189673 0.810290
vt 0.214765 0.785198
vt 0.091780 0.668623
vt 0.124027 0.654430
vt 0.056942 0.499978
vt 0.092203 0.499978
vt 0.091785 0.331333
vt 0.124030 0.345525
vt 0.189678 0.189664
vt 0.214770 0.214756
vt 0.331350 0.091775
vt 0.345541 0.124019
vt 0.499998 0.056940
vt 0.499998 0.092197
vt 0.668646 0.091781
vt 0.654456 0.124024
vt 0.810321 0.189669
vt 0.785228 0.214762
vt 0.949666 0.500005
vt 0.915434 0.672080
vt 0.879412 0.657158
vt 0.910674 0.500004
vt 0.817963 0.817958
vt 0.790391 0.790387
vt 0.672087 0.915435
vt 0.657165 0.879411
vt 0.500013 0.949666
vt 0.500011 0.910673
vt 0.327931 0.915440
vt 0.342852 0.879415
vt 0.182045 0.817967
vt 0.209617 0.790394
vt 0.084566 0.672084
vt 0.120590 0.657162
vt 0.050334 0.500001
vt 0.089328 0.500001
vt 0.084564 0.327917
vt 0.120589 0.342839
vt 0.182043 0.182033
vt 0.209615 0.209606
vt 0.327930 0.084558
vt 0.342851 0.120583
vt 0.500013 0.050333
vt 0.500012 0.089326
vt 0.672092 0.084567
vt 0.657169 0.120591
vt 0.817970 0.182046
vt 0.790398 0.209617
vt 0.915441 0.327928
vt 0.879417 0.342849
vt 0.998000 0.499986
vt 0.959264 0.309993
vt 0.850331 0.149660
vt 0.689991 0.040736
vt 0.499998 0.002000
vt 0.310004 0.040728
vt 0.149668 0.149654
vt 0.040737 0.309986
vt 0.002000 0.499978
vt 0.040731 0.689969
vt 0.149663 0.850299
vt 0.309998 0.959223
vt 0.499991 0.997953
vt 0.689985 0.959224
vt 0.850326 0.850305
vt 0.959263 0.689977
vt 0.500007 0.693652
vt 0.682406 0.682401
vt 0.317604 0.682404
vt 0.306353 0.500000
vt 0.317604 0.317596
vt 0.499994 0.691918
vt 0.680473 0.680454
vt 0.319517 0.680451
vt 0.308053 0.499980
vt 0.319520 0.319507
vn 0.9808 0.1951 0.0000
vn 0.8315 0.5556 0.0000
vn 0.5556 0.8315 -0.0000
vn 0.1951 0.9808 -0.0000
vn -0.1951 0.9808 0.0000
vn -0.5556 0.8315 0.0000
vn -0.8315 0.5556 0.0000
vn -0.9808 0.1951 0.0000
vn -0.9808 -0.1951 -0.0000
vn -0.8315 -0.5556 -0.0000
vn -0.5556 -0.8315 0.0000
vn -0.1951 -0.9808 0.0000
vn 0.1951 -0.9808 0.0000
vn 0.5556 -0.8315 0.0000
vn 0.8315 -0.5556 0.0000
vn 0.9808 -0.1951 0.0000
vn -0.0000 0.0000 -1.0000
vn 0.0000 -0.0000 1.0000
vn 0.7002 0.1393 -0.7002
vn 0.7002 0.1393 0.7002
vn 0.5936 0.3966 -0.7002
vn 0.5936 0.3966 0.7002
vn 0.3966 0.5936 -0.7002
vn 0.3966 0.5936 0.7002
vn 0.1393 0.7002 -0.7002
vn 0.1393 0.7002 0.7002
vn -0.1393 0.7002 -0.7002
vn -0.1393 0.7002 0.7002
vn -0.3966 0.5936 -0.7002
vn -0.3966 0.5936 0.7002
vn -0.5936 0.3966 -0.7002
vn -0.5936 0.3966 0.7002
vn -0.7002 0.1393 -0.7002
vn -0.7002 0.1393 0.7002
vn -0.7002 -0.1393 -0.7002
vn -0.7002 -0.1393 0.7002
vn -0.5936 -0.3966 -0.7002
vn -0.5936 -0.3966 0.7002
vn -0.3966 -0.5936 -0.7002
vn -0.3966 -0.5936 0.7002
vn -0.1393 -0.7002 -0.7002
vn -0.1393 -0.7002 0.7002
vn 0.1393 -0.7002 -0.7002
vn 0.1393 -0.7002 0.7002
vn 0.3966 -0.5936 -0.7002
vn 0.3966 -0.5936 0.7002
vn 0.5936 -0.3966 -0.7002
vn 0.5936 -0.3966 0.7002
vn 0.7002 -0.1393 -0.7002
vn 0.7002 -0.1393 0.7002
usemtl Default_OBJ
s off
f 1/1/1 2/2/1 3/3/1 4/4/1
f 2/2/2 5/5/2 6/6/2 3/3/2
f 5/5/3 7/7/3 8/8/3 6/6/3
f 7/7/4 9/9/4 10/10/4 8/8/4
f 9/9/5 11/11/5 12/12/5 10/10/5
f 11/11/6 13/13/6 14/14/6 12/12/6
f 13/13/7 15/15/7 16/16/7 14/14/7
f 15/15/8 17/17/8 18/18/8 16/16/8
f 17/17/9 19/19/9 20/20/9 18/18/9
f 19/19/10 21/21/10 22/22/10 20/20/10
f 21/21/11 23/23/11 24/24/11 22/22/11
f 23/23/12 25/25/12 26/26/12 24/24/12
f 25/25/13 27/27/13 28/28/13 26/26/13
f 27/27/14 29/29/14 30/30/14 28/28/14
f 29/29/15 31/31/15 32/32/15 30/30/15
f 31/31/16 1/1/16 4/4/16 32/32/16
f 33/33/17 34/34/17 35/35/17 36/36/17
f 37/37/18 38/38/18 39/39/18 40/40/18
f 41/41/17 42/42/17 43/43/17 44/44/17
f 42/42/17 45/45/17 46/46/17 43/43/17
f 45/45/17 47/47/17 48/48/17 46/46/17
f 47/47/17 49/49/17 50/50/17 48/48/17
f 49/49/17 51/51/17 52/52/17 50/50/17
f 51/51/17 53/53/17 54/54/17 52/52/17
f 53/53/17 55/55/17 56/56/17 54/54/17
f 55/55/17 57/57/17 58/58/17 56/56/17
f 57/57/17 59/59/17 60/60/17 58/58/17
f 59/59/17 61/61/17 62/62/17 60/60/17
f 61/61/17 63/63/17 64/64/17 62/62/17
f 63/63/17 65/65/17 66/66/17 64/64/17
f 65/65/17 67/67/17 68/68/17 66/66/17
f 67/67/17 69/69/17 70/70/17 68/68/17
f 69/69/17 71/71/17 72/72/17 70/70/17
f 71/71/17 41/41/17 44/44/17 72/72/17
f 73/73/18 74/74/18 75/75/18 76/76/18
f 74/74/18 77/77/18 78/78/18 75/75/18
f 77/77/18 79/79/18 80/80/18 78/78/18
f 79/79/18 81/81/18 82/82/18 80/80/18
f 81/81/18 83/83/18 84/84/18 82/82/18
f 83/83/18 85/85/18 86/86/18 84/84/18
f 85/85/18 87/87/18 88/88/18 86/86/18
f 87/87/18 89/89/18 90/90/18 88/88/18
f 89/89/18 91/91/18 92/92/18 90/90/18
f 91/91/18 93/93/18 94/94/18 92/92/18
f 93/93/18 95/95/18 96/96/18 94/94/18
f 95/95/18 97/97/18 98/98/18 96/96/18
f 97/97/18 99/99/18 100/100/18 98/98/18
f 99/99/18 101/101/18 102/102/18 100/100/18
f 101/101/18 103/103/18 104/104/18 102/102/18
f 103/103/18 73/73/18 76/76/18 104/104/18
f 41/41/19 2/2/19 1/1/19 42/42/19
f 73/105/20 4/4/20 3/3/20 74/106/20
f 71/71/21 5/5/21 2/2/21 41/41/21
f 74/106/22 3/3/22 6/6/22 77/107/22
f 69/69/23 7/7/23 5/5/23 71/71/23
f 77/107/24 6/6/24 8/8/24 79/108/24
f 67/67/25 9/9/25 7/7/25 69/69/25
f 79/108/26 8/8/26 10/10/26 81/109/26
f 65/65/27 11/11/27 9/9/27 67/67/27
f 81/109/28 10/10/28 12/12/28 83/110/28
f 63/63/29 13/13/29 11/11/29 65/65/29
f 83/110/30 12/12/30 14/14/30 85/111/30
f 61/61/31 15/15/31 13/13/31 63/63/31
f 85/111/32 14/14/32 16/16/32 87/112/32
f 59/59/33 17/17/33 15/15/33 61/61/33
f 87/112/34 16/16/34 18/18/34 89/113/34
f 57/57/35 19/19/35 17/17/35 59/59/35
f 89/113/36 18/18/36 20/20/36 91/114/36
f 55/55/37 21/21/37 19/19/37 57/57/37
f 91/114/38 20/20/38 22/22/38 93/115/38
f 53/53/39 23/23/39 21/21/39 55/55/39
f 93/115/40 22/22/40 24/24/40 95/116/40
f 51/51/41 25/25/41 23/23/41 53/53/41
f 95/116/42 24/24/42 26/26/42 97/117/42
f 49/49/43 27/27/43 25/25/43 51/51/43
f 97/117/44 26/26/44 28/28/44 99/118/44
f 47/47/45 29/29/45 27/27/45 49/49/45
f 99/118/46 28/28/46 30/30/46 101/119/46
f 45/45/47 31/31/47 29/29/47 47/47/47
f 101/119/48 30/30/48 32/32/48 103/120/48
f 42/42/49 1/1/49 31/31/49 45/45/49
f 103/120/50 32/32/50 4/4/50 73/105/50
f 80/80/18 82/82/18 105/121/18 106/122/18
f 84/84/18 107/123/18 105/121/18 82/82/18
f 108/124/18 109/125/18 38/38/18 37/37/18
f 104/104/18 76/76/18 40/40/18 39/39/18
f 78/78/18 80/80/18 106/122/18 75/75/18
f 86/86/18 88/88/18 107/123/18 84/84/18
f 108/124/18 90/90/18 92/92/18 109/125/18
f 94/94/18 96/96/18 109/125/18 92/92/18
f 96/96/18 98/98/18 38/38/18 109/125/18
f 38/38/18 98/98/18 100/100/18 39/39/18
f 39/39/18 100/100/18 102/102/18 104/104/18
f 88/88/18 90/90/18 108/124/18 107/123/18
f 108/124/18 37/37/18 105/121/18 107/123/18
f 37/37/18 40/40/18 106/122/18 105/121/18
f 40/40/18 76/76/18 75/75/18 106/122/18
f 50/50/17 52/52/17 110/126/17 111/127/17
f 54/54/17 112/128/17 110/126/17 52/52/17
f 33/33/17 36/36/17 113/129/17 114/130/17
f 110/126/17 36/36/17 35/35/17 111/127/17
f 110/126/17 112/128/17 113/129/17 36/36/17
f 66/66/17 68/68/17 33/33/17 114/130/17
f 33/33/17 68/68/17 70/70/17 34/34/17
f 72/72/17 44/44/17 34/34/17 70/70/17
f 44/44/17 43/43/17 35/35/17 34/34/17
f 35/35/17 43/43/17 46/46/17 111/127/17
f 111/127/17 46/46/17 48/48/17 50/50/17
f 54/54/17 56/56/17 58/58/17 112/128/17
f 58/58/17 60/60/17 113/129/17 112/128/17
f 113/129/17 60/60/17 62/62/17 114/130/17
f 114/130/17 62/62/17 64/64/17 66/66/17
